<svg xmlns="http://www.w3.org/2000/svg" viewBox="0 0 50 50" width="24" height="24" fill="white"><path d="M 12.019531 0.21875 C 5.515625 0.21875 0.21875 5.515625 0.21875 12.019531 L 0.21875 37.980469 C 0.21875 44.484375 5.515625 49.78125 12.019531 49.78125 L 37.980469 49.78125 C 44.484375 49.78125 49.78125 44.484375 49.78125 37.980469 L 49.78125 12.019531 C 49.78125 5.515625 44.484375 0.21875 37.980469 0.21875 Z M 10.839844 14.378906 L 39.160156 14.378906 C 39.371094 14.378906 39.574219 14.402344 39.761719 14.464844 L 28.160156 26.050781 C 26.414062 27.796875 23.574219 27.796875 21.828125 26.050781 L 10.238281 14.464844 C 10.425781 14.402344 10.628906 14.378906 10.839844 14.378906 Z M 8.5625 16.136719 L 17.4375 25 L 8.5625 33.863281 C 8.503906 33.671875 8.480469 33.472656 8.480469 33.261719 L 8.480469 16.738281 C 8.480469 16.527344 8.503906 16.328125 8.5625 16.136719 Z M 41.4375 16.136719 C 41.496094 16.328125 41.519531 16.527344 41.519531 16.738281 L 41.519531 33.261719 C 41.519531 33.472656 41.496094 33.671875 41.4375 33.863281 L 32.550781 25 Z M 19.101562 26.664062 L 20.152344 27.726562 C 21.484375 29.058594 23.242188 29.71875 24.988281 29.71875 C 26.746094 29.71875 28.492188 29.058594 29.824219 27.726562 L 30.886719 26.664062 L 39.761719 35.535156 C 39.574219 35.597656 39.371094 35.621094 39.160156 35.621094 L 10.839844 35.621094 C 10.628906 35.621094 10.425781 35.597656 10.238281 35.535156 Z M 19.101562 26.664062 "/></svg>
